<?xml version="1.0" standalone="no"?>
<!DOCTYPE svg PUBLIC "-//W3C//DTD SVG 20010904//EN"
 "http://www.w3.org/TR/2001/REC-SVG-20010904/DTD/svg10.dtd">
<svg version="1.0" xmlns="http://www.w3.org/2000/svg"
 width="635.000000pt" height="635.000000pt" viewBox="0 0 635.000000 635.000000"
 preserveAspectRatio="xMidYMid meet">
<metadata>
Created by potrace 1.11, written by Peter Selinger 2001-2013
</metadata>
<g transform="translate(0.000000,635.000000) scale(0.100000,-0.100000)"
fill="#000000" stroke="none">
<path d="M0 3175 l0 -3175 3175 0 3175 0 0 3175 0 3175 -3175 0 -3175 0 0
-3175z m1750 396 c0 -598 -1 -632 -20 -693 -64 -208 -224 -297 -536 -298 -212
0 -372 46 -462 133 -98 96 -113 145 -119 405 l-5 202 105 0 105 0 4 -192 c3
-181 4 -195 26 -230 13 -21 36 -47 52 -58 99 -70 460 -73 565 -4 14 9 38 38
53 63 l27 46 3 628 3 627 99 0 100 0 0 -629z m1645 609 c188 -47 289 -157 314
-343 14 -102 14 -767 0 -877 -13 -103 -34 -154 -90 -215 -46 -50 -100 -82
-189 -111 -49 -16 -104 -18 -497 -22 l-443 -3 0 796 0 797 428 -5 c291 -3 443
-9 477 -17z m1245 -325 l0 -345 410 0 410 0 0 345 0 345 100 0 100 0 0 -795 0
-795 -100 0 -100 0 0 345 0 345 -410 0 -410 0 0 -345 0 -345 -105 0 -105 0 0
795 0 795 105 0 105 0 0 -345z"/>
<path d="M2700 3404 l0 -585 333 3 c331 3 332 3 382 28 93 47 90 27 90 550 0
502 1 493 -64 539 -61 44 -125 51 -443 51 l-298 0 0 -586z"/>
</g>
</svg>
