<?xml version="1.0" encoding="utf-8"?>
<!-- Generator: Adobe Illustrator 21.0.0, SVG Export Plug-In . SVG Version: 6.00 Build 0)  -->
<svg version="1.1" id="Layer_1" xmlns="http://www.w3.org/2000/svg" xmlns:xlink="http://www.w3.org/1999/xlink" x="0px" y="0px"
	 viewBox="0 0 48 48" style="enable-background:new 0 0 48 48;" xml:space="preserve">
<style type="text/css">
	.st0{fill:#DB400F;}
	.st1{fill:#F9F9F9;}
	.st2{fill:none;}
</style>
<circle class="st0" cx="24" cy="24" r="24"/>
<ellipse class="st1" cx="24" cy="24.2" rx="5.5" ry="5.4"/>
<path class="st1" d="M18.8,7.4l-3.2,3.4h-5.5c-1.9,0-3.5,1.5-3.5,3.4v20.2c0,1.9,1.6,3.4,3.5,3.4h27.7c1.9,0,3.5-1.5,3.5-3.4V14.1
	c0-1.9-1.6-3.4-3.5-3.4h-5.5l-3.2-3.4H18.8z M24,32.6c-4.8,0-8.7-3.8-8.7-8.4s3.9-8.4,8.7-8.4s8.7,3.8,8.7,8.4S28.8,32.6,24,32.6z"
	/>
<path class="st2" d="M0,0h48v48H0V0z"/>
</svg>
