<?xml version="1.0" encoding="utf-8"?>
<!-- Generator: Adobe Illustrator 21.0.0, SVG Export Plug-In . SVG Version: 6.00 Build 0)  -->
<svg version="1.1" id="Layer_1" xmlns="http://www.w3.org/2000/svg" xmlns:xlink="http://www.w3.org/1999/xlink" x="0px" y="0px"
	 viewBox="0 0 48 48" style="enable-background:new 0 0 48 48;" xml:space="preserve">
<style type="text/css">
	.st0{fill:#3AA3F9;}
	.st1{fill:none;}
	.st2{fill:#FFFFFF;}
</style>
<circle class="st0" cx="24" cy="24" r="24"/>
<path class="st1" d="M0,0h48v48H0V0z"/>
<path class="st2" d="M10.4,15H7v21c0,1.7,1.5,3,3.4,3h23.8v-3H10.4V15z M37.6,9H17.2c-1.9,0-3.4,1.4-3.4,3v18c0,1.7,1.5,3,3.4,3
	h20.4c1.9,0,3.4-1.3,3.4-3V12C41,10.4,39.5,9,37.6,9z M35.9,22.5h-17v-3h17V22.5z M29.1,28.5H18.9v-3h10.2V28.5z M35.9,16.5h-17v-3
	h17V16.5z"/>
</svg>
