<?xml version="1.0" standalone="no"?>
<!DOCTYPE svg PUBLIC "-//W3C//DTD SVG 20010904//EN"
 "http://www.w3.org/TR/2001/REC-SVG-20010904/DTD/svg10.dtd">
<svg version="1.0" xmlns="http://www.w3.org/2000/svg"
 width="500.000000pt" height="71.000000pt" viewBox="0 0 500.000000 71.000000"
 preserveAspectRatio="xMidYMid meet">

<g transform="translate(0.000000,71.000000) scale(0.100000,-0.100000)"
fill="#000000" stroke="none">
<path d="M0 537 c0 -242 18 -305 119 -410 51 -53 122 -102 163 -112 63 -16
238 117 291 221 36 71 47 146 47 321 l0 153 -310 0 -310 0 0 -173z m142 136
c14 -3 18 -15 18 -54 l0 -49 -60 0 c-33 0 -60 2 -60 4 0 2 -3 13 -6 23 -6 17
-6 17 8 -1 12 -16 22 -18 62 -12 58 9 54 18 -8 18 -45 0 -46 0 -46 32 0 18 3
35 6 39 7 7 62 7 86 0z m143 -3 c-3 -5 -2 -10 4 -10 5 0 12 6 14 13 4 8 6 6 6
-4 1 -9 11 -24 24 -35 l22 -19 -20 25 -20 25 22 -19 c13 -10 20 -22 17 -27 -7
-12 35 -51 49 -46 7 2 14 12 16 22 2 13 -1 16 -13 12 -21 -8 -20 3 3 31 27 31
31 28 31 -23 0 -39 -4 -47 -25 -57 -21 -9 -35 -8 -78 10 -29 12 -58 22 -65 22
-6 0 -11 3 -11 8 3 19 -2 32 -12 32 -8 0 -8 -5 1 -15 9 -11 9 -15 1 -15 -7 0
-10 -4 -7 -9 3 -5 -2 -15 -11 -22 -9 -8 -14 -9 -10 -3 4 7 -2 10 -17 7 -19 -4
-22 -1 -20 19 1 12 3 28 3 35 2 22 44 53 73 53 17 0 27 -4 23 -10z m235 -30
c0 -33 -3 -40 -20 -40 -16 0 -20 7 -20 33 0 36 6 47 27 47 9 0 13 -13 13 -40z
m58 31 c9 -5 12 -24 10 -52 l-3 -44 -54 -3 c-37 -2 -57 1 -62 10 -11 16 -12
37 -1 22 10 -15 62 -23 92 -14 l25 8 -27 1 c-26 1 -28 4 -28 41 0 41 16 52 48
31z m-396 -293 c-106 -106 -134 -130 -142 -118 -16 26 -30 108 -30 180 l0 70
152 0 153 0 -133 -132z m418 46 c0 -80 -15 -164 -29 -164 -4 0 -62 56 -131
125 l-125 125 143 0 142 0 0 -86z m-255 0 c26 -26 16 -77 -17 -88 -52 -18 -89
44 -51 86 20 22 46 23 68 2z m-135 -135 c26 -47 -25 -100 -69 -72 -20 13 -26
60 -10 79 18 22 66 18 79 -7z m284 -12 c13 -36 -2 -61 -38 -65 -35 -4 -56 13
-56 47 0 36 19 53 55 49 22 -2 32 -10 39 -31z m-99 -67 l80 -81 -35 -29 c-19
-16 -59 -41 -89 -56 l-54 -28 -51 27 c-28 15 -64 39 -80 53 l-29 26 84 84 c46
46 86 84 89 84 3 0 41 -36 85 -80z"/>
<path d="M224 655 c-3 -8 -4 -20 -1 -27 3 -7 6 -3 6 9 1 12 9 24 19 26 16 4
16 5 -1 6 -10 0 -20 -6 -23 -14z"/>
<path d="M300 626 c0 -2 8 -10 18 -17 15 -13 16 -12 3 4 -13 16 -21 21 -21 13z"/>
<path d="M205 600 c-3 -5 -1 -10 4 -10 6 0 11 5 11 10 0 6 -2 10 -4 10 -3 0
-8 -4 -11 -10z"/>
</g>
</svg>
